<svg id='Flower_Bouquet_24' width='24' height='24' viewBox='0 0 24 24' xmlns='http://www.w3.org/2000/svg' xmlns:xlink='http://www.w3.org/1999/xlink'><rect width='24' height='24' stroke='none' fill='#000000' opacity='0'/>


<g transform="matrix(0.42 0 0 0.42 12 12)" >
<g style="" >
<g transform="matrix(1 0 0 1 -8.8 2)" >
<path style="stroke: none; stroke-width: 1; stroke-dasharray: none; stroke-linecap: butt; stroke-dashoffset: 0; stroke-linejoin: miter; stroke-miterlimit: 4; fill: rgb(46,125,50); fill-rule: nonzero; opacity: 1;" transform=" translate(-15.2, -26)" d="M 26 43 C 26 31.2 11.7 12.4 4.4 9 C 18.8 9 26 21 26 43 z" stroke-linecap="round" />
</g>
<g transform="matrix(1 0 0 1 -1.25 4.85)" >
<path style="stroke: none; stroke-width: 1; stroke-dasharray: none; stroke-linecap: butt; stroke-dashoffset: 0; stroke-linejoin: miter; stroke-miterlimit: 4; fill: rgb(46,125,50); fill-rule: nonzero; opacity: 1;" transform=" translate(-22.75, -28.85)" d="M 28 18.8 C 27.9 19.1 26.9 24 26.3 33.8 C 25.2 21.9 22.900000000000002 13.799999999999997 22.900000000000002 13.699999999999996 L 21 14.3 C 21 14.4 23.3 22.5 24.4 34.400000000000006 C 21.799999999999997 25.000000000000007 16.9 21.400000000000006 16.599999999999998 21.300000000000004 L 15.499999999999998 22.900000000000006 C 15.5 22.9 24 26.1 24 44 L 28 44 C 28 25.6 30 19.3 30 19.2 L 28 18.8 z" stroke-linecap="round" />
</g>
<g transform="matrix(1 0 0 1 -2 -10)" >
<path style="stroke: none; stroke-width: 1; stroke-dasharray: none; stroke-linecap: butt; stroke-dashoffset: 0; stroke-linejoin: miter; stroke-miterlimit: 4; fill: rgb(216,67,21); fill-rule: nonzero; opacity: 1;" transform=" translate(-22, -14)" d="M 17 5.3 C 18.4 4.5 20.3 5 21.1 6.4 C 21.900000000000002 7.800000000000001 21.5 13.100000000000001 21.5 13.100000000000001 C 21.5 13.100000000000001 16.7 10.8 15.9 9.400000000000002 C 15.1 8 15.6 6.2 17 5.3 z M 27 22.7 C 25.6 23.5 23.7 23 22.9 21.599999999999998 C 22.099999999999998 20.2 22.5 14.899999999999999 22.5 14.899999999999999 C 22.5 14.899999999999999 27.3 17.2 28.1 18.599999999999998 C 28.9 20 28.4 21.8 27 22.7 z M 12 14 C 12 12.3 13.3 11 15 11 C 16.7 11 21 14 21 14 C 21 14 16.7 17 15 17 C 13.3 17 12 15.7 12 14 z M 32 14 C 32 15.7 30.7 17 29 17 C 27.3 17 23 14 23 14 C 23 14 27.3 11 29 11 C 30.7 11 32 12.3 32 14 z M 17 22.7 C 15.6 21.9 15.1 20 15.9 18.6 C 16.7 17.200000000000003 21.5 14.900000000000002 21.5 14.900000000000002 C 21.5 14.900000000000002 21.9 20.200000000000003 21.1 21.6 C 20.3 23 18.4 23.5 17 22.7 z M 27 5.3 C 28.4 6.1 28.9 8 28.1 9.399999999999999 C 27.3 10.799999999999999 22.5 13.099999999999998 22.5 13.099999999999998 C 22.5 13.099999999999998 22.1 7.799999999999998 22.9 6.399999999999998 C 23.7 5 25.6 4.5 27 5.3 z" stroke-linecap="round" />
</g>
<g transform="matrix(1 0 0 1 -2 -10)" >
<path style="stroke: none; stroke-width: 1; stroke-dasharray: none; stroke-linecap: butt; stroke-dashoffset: 0; stroke-linejoin: miter; stroke-miterlimit: 4; fill: rgb(255,87,34); fill-rule: nonzero; opacity: 1;" transform=" translate(-22, -14)" d="M 22 4 C 23.7 4 25 5.3 25 7 C 25 8.7 22 13 22 13 C 22 13 19 8.7 19 7 C 19 5.300000000000001 20.3 4 22 4 z M 22 24 C 20.3 24 19 22.7 19 21 C 19 19.3 22 15 22 15 C 22 15 25 19.3 25 21 C 25 22.7 23.7 24 22 24 z M 13.3 9 C 14.100000000000001 7.6 16 7.1 17.4 7.9 C 18.799999999999997 8.700000000000001 21.099999999999998 13.5 21.099999999999998 13.5 C 21.099999999999998 13.5 15.799999999999997 13.9 14.399999999999999 13.1 C 13 12.3 12.5 10.4 13.3 9 z M 30.7 19 C 29.9 20.4 28 20.9 26.6 20.1 C 25.200000000000003 19.3 22.900000000000002 14.500000000000002 22.900000000000002 14.500000000000002 C 22.900000000000002 14.500000000000002 28.200000000000003 14.100000000000001 29.6 14.900000000000002 C 31 15.7 31.5 17.6 30.7 19 z M 13.3 19 C 12.5 17.6 13 15.7 14.4 14.9 C 15.8 14.1 21.1 14.5 21.1 14.5 C 21.1 14.5 18.8 19.3 17.400000000000002 20.1 C 16 20.9 14.2 20.4 13.3 19 z M 30.7 9 C 31.5 10.4 31 12.3 29.599999999999998 13.1 C 28.2 13.9 22.9 13.5 22.9 13.5 C 22.9 13.5 25.2 8.7 26.599999999999998 7.9 C 27.999999999999996 7.100000000000001 29.8 7.6 30.7 9 z" stroke-linecap="round" />
</g>
<g transform="matrix(1 0 0 1 -2 -10)" >
<path style="stroke: none; stroke-width: 1; stroke-dasharray: none; stroke-linecap: butt; stroke-dashoffset: 0; stroke-linejoin: miter; stroke-miterlimit: 4; fill: rgb(255,193,7); fill-rule: nonzero; opacity: 1;" transform=" translate(-22, -14)" d="M 22 10 C 19.790861000676827 10 18 11.790861000676827 18 14 C 18 16.209138999323173 19.790861000676827 18 22 18 C 24.209138999323173 18 26 16.209138999323173 26 14 C 26 11.790861000676827 24.209138999323173 10 22 10 Z" stroke-linecap="round" />
</g>
<g transform="matrix(1 0 0 1 -2 -10)" >
<path style="stroke: none; stroke-width: 1; stroke-dasharray: none; stroke-linecap: butt; stroke-dashoffset: 0; stroke-linejoin: miter; stroke-miterlimit: 4; fill: rgb(255,235,59); fill-rule: nonzero; opacity: 1;" transform=" translate(-22, -14)" d="M 22 11.5 C 20.619288125423015 11.5 19.5 12.619288125423017 19.5 14 C 19.5 15.380711874576983 20.619288125423015 16.5 22 16.5 C 23.380711874576985 16.5 24.5 15.380711874576983 24.5 14 C 24.5 12.619288125423017 23.380711874576985 11.5 22 11.5 Z" stroke-linecap="round" />
</g>
<g transform="matrix(1 0 0 1 12.3 4.5)" >
<path style="stroke: none; stroke-width: 1; stroke-dasharray: none; stroke-linecap: butt; stroke-dashoffset: 0; stroke-linejoin: miter; stroke-miterlimit: 4; fill: rgb(67,160,71); fill-rule: nonzero; opacity: 1;" transform=" translate(-36.3, -28.5)" d="M 44.6 16 C 37.3 19.4 28 30.5 28 41 C 28 23.5 30.2 16 44.6 16 z" stroke-linecap="round" />
</g>
<g transform="matrix(1 0 0 1 6.42 5)" >
<path style="stroke: none; stroke-width: 1; stroke-dasharray: none; stroke-linecap: butt; stroke-dashoffset: 0; stroke-linejoin: miter; stroke-miterlimit: 4; fill: rgb(76,175,80); fill-rule: nonzero; opacity: 1;" transform=" translate(-30.42, -29)" d="M 35.6 16 C 28.3 19.4 26 39.3 26 42 C 26 38.6 21.2 16 35.6 16 z" stroke-linecap="round" />
</g>
<g transform="matrix(1 0 0 1 -7.58 10.5)" >
<path style="stroke: none; stroke-width: 1; stroke-dasharray: none; stroke-linecap: butt; stroke-dashoffset: 0; stroke-linejoin: miter; stroke-miterlimit: 4; fill: rgb(67,160,71); fill-rule: nonzero; opacity: 1;" transform=" translate(-16.42, -34.5)" d="M 24 42 C 24 31.5 15.7 30.4 8.4 27 C 22.8 27 25.7 30.5 24 42 z" stroke-linecap="round" />
</g>
<g transform="matrix(1 0 0 1 -8 -2)" >
<path style="stroke: none; stroke-width: 1; stroke-dasharray: none; stroke-linecap: butt; stroke-dashoffset: 0; stroke-linejoin: miter; stroke-miterlimit: 4; fill: rgb(198,40,40); fill-rule: nonzero; opacity: 1;" transform=" translate(-16, -22)" d="M 11 13.3 C 12.4 12.5 14.3 13 15.1 14.4 C 15.9 15.8 15.5 21.1 15.5 21.1 C 15.5 21.1 10.7 18.8 9.9 17.400000000000002 C 9.1 16 9.6 14.2 11 13.3 z M 21 30.7 C 19.6 31.5 17.7 31 16.9 29.599999999999998 C 16.099999999999998 28.2 16.5 22.9 16.5 22.9 C 16.5 22.9 21.3 25.2 22.1 26.599999999999998 C 22.9 28 22.4 29.8 21 30.7 z M 6 22 C 6 20.3 7.3 19 9 19 C 10.7 19 15 22 15 22 C 15 22 10.7 25 9 25 C 7.300000000000001 25 6 23.7 6 22 z M 26 22 C 26 23.7 24.7 25 23 25 C 21.3 25 17 22 17 22 C 17 22 21.3 19 23 19 C 24.7 19 26 20.3 26 22 z M 11 30.7 C 9.6 29.9 9.1 28 9.9 26.6 C 10.700000000000001 25.200000000000003 15.5 22.900000000000002 15.5 22.900000000000002 C 15.5 22.900000000000002 15.9 28.200000000000003 15.1 29.6 C 14.3 31 12.4 31.5 11 30.7 z M 21 13.3 C 22.4 14.100000000000001 22.9 16 22.1 17.4 C 21.3 18.799999999999997 16.5 21.099999999999998 16.5 21.099999999999998 C 16.5 21.099999999999998 16.1 15.799999999999997 16.9 14.399999999999999 C 17.7 13 19.6 12.5 21 13.3 z" stroke-linecap="round" />
</g>
<g transform="matrix(1 0 0 1 -8 -2)" >
<path style="stroke: none; stroke-width: 1; stroke-dasharray: none; stroke-linecap: butt; stroke-dashoffset: 0; stroke-linejoin: miter; stroke-miterlimit: 4; fill: rgb(244,67,54); fill-rule: nonzero; opacity: 1;" transform=" translate(-16, -22)" d="M 16 12 C 17.7 12 19 13.3 19 15 C 19 16.7 16 21 16 21 C 16 21 13 16.7 13 15 C 13 13.3 14.3 12 16 12 z M 16 32 C 14.3 32 13 30.7 13 29 C 13 27.3 16 23 16 23 C 16 23 19 27.3 19 29 C 19 30.7 17.7 32 16 32 z M 7.3 17 C 8.1 15.6 10 15.1 11.399999999999999 15.9 C 12.799999999999999 16.7 15.099999999999998 21.5 15.099999999999998 21.5 C 15.099999999999998 21.5 9.799999999999997 21.9 8.399999999999999 21.1 C 7 20.3 6.5 18.4 7.3 17 z M 24.7 27 C 23.9 28.4 22 28.9 20.6 28.1 C 19.200000000000003 27.3 16.900000000000002 22.5 16.900000000000002 22.5 C 16.900000000000002 22.5 22.200000000000003 22.1 23.6 22.9 C 25 23.7 25.5 25.6 24.7 27 z M 7.3 27 C 6.5 25.6 7 23.7 8.4 22.9 C 9.8 22.099999999999998 15.100000000000001 22.5 15.100000000000001 22.5 C 15.100000000000001 22.5 12.8 27.3 11.400000000000002 28.1 C 10 28.9 8.2 28.4 7.3 27 z M 24.7 17 C 25.5 18.4 25 20.3 23.599999999999998 21.1 C 22.2 21.900000000000002 16.9 21.5 16.9 21.5 C 16.9 21.5 19.2 16.7 20.599999999999998 15.9 C 22 15.1 23.8 15.6 24.7 17 z" stroke-linecap="round" />
</g>
<g transform="matrix(1 0 0 1 -8 -2)" >
<path style="stroke: none; stroke-width: 1; stroke-dasharray: none; stroke-linecap: butt; stroke-dashoffset: 0; stroke-linejoin: miter; stroke-miterlimit: 4; fill: rgb(255,152,0); fill-rule: nonzero; opacity: 1;" transform=" translate(-16, -22)" d="M 16 18 C 13.790861000676827 18 12 19.790861000676827 12 22 C 12 24.209138999323173 13.790861000676827 26 16 26 C 18.209138999323173 26 20 24.209138999323173 20 22 C 20 19.790861000676827 18.209138999323173 18 16 18 Z" stroke-linecap="round" />
</g>
<g transform="matrix(1 0 0 1 -8 -2)" >
<path style="stroke: none; stroke-width: 1; stroke-dasharray: none; stroke-linecap: butt; stroke-dashoffset: 0; stroke-linejoin: miter; stroke-miterlimit: 4; fill: rgb(255,235,59); fill-rule: nonzero; opacity: 1;" transform=" translate(-16, -22)" d="M 16 19.5 C 14.619288125423017 19.5 13.5 20.619288125423015 13.5 22 C 13.5 23.380711874576985 14.619288125423017 24.5 16 24.5 C 17.380711874576985 24.5 18.5 23.380711874576985 18.5 22 C 18.5 20.619288125423015 17.380711874576985 19.5 16 19.5 Z" stroke-linecap="round" />
</g>
<g transform="matrix(1 0 0 1 5 -5)" >
<path style="stroke: none; stroke-width: 1; stroke-dasharray: none; stroke-linecap: butt; stroke-dashoffset: 0; stroke-linejoin: miter; stroke-miterlimit: 4; fill: rgb(179,0,209); fill-rule: nonzero; opacity: 1;" transform=" translate(-29, -19)" d="M 24 10.3 C 25.4 9.5 27.3 10 28.1 11.4 C 28.900000000000002 12.8 28.5 18.1 28.5 18.1 C 28.5 18.1 23.7 15.8 22.9 14.400000000000002 C 22.1 13 22.6 11.2 24 10.3 z M 34 27.7 C 32.6 28.5 30.7 28 29.9 26.599999999999998 C 29.099999999999998 25.2 29.5 19.9 29.5 19.9 C 29.5 19.9 34.3 22.2 35.1 23.599999999999998 C 35.900000000000006 24.999999999999996 35.4 26.8 34 27.7 z M 19 19 C 19 17.3 20.3 16 22 16 C 23.7 16 28 19 28 19 C 28 19 23.7 22 22 22 C 20.3 22 19 20.7 19 19 z M 39 19 C 39 20.7 37.7 22 36 22 C 34.3 22 30 19 30 19 C 30 19 34.3 16 36 16 C 37.7 16 39 17.3 39 19 z M 24 27.7 C 22.6 26.9 22.1 25 22.9 23.6 C 23.7 22.200000000000003 28.5 19.900000000000002 28.5 19.900000000000002 C 28.5 19.900000000000002 28.9 25.200000000000003 28.1 26.6 C 27.3 28 25.4 28.5 24 27.7 z M 34 10.3 C 35.4 11.100000000000001 35.9 13 35.1 14.4 C 34.300000000000004 15.8 29.5 18.1 29.5 18.1 C 29.5 18.1 29.1 12.8 29.9 11.400000000000002 C 30.7 10 32.6 9.5 34 10.3 z" stroke-linecap="round" />
</g>
<g transform="matrix(1 0 0 1 5 -5)" >
<path style="stroke: none; stroke-width: 1; stroke-dasharray: none; stroke-linecap: butt; stroke-dashoffset: 0; stroke-linejoin: miter; stroke-miterlimit: 4; fill: rgb(224,64,251); fill-rule: nonzero; opacity: 1;" transform=" translate(-29, -19)" d="M 29 9 C 30.7 9 32 10.3 32 12 C 32 13.7 29 18 29 18 C 29 18 26 13.7 26 12 C 26 10.3 27.3 9 29 9 z M 29 29 C 27.3 29 26 27.7 26 26 C 26 24.3 29 20 29 20 C 29 20 32 24.3 32 26 C 32 27.7 30.7 29 29 29 z M 20.3 14 C 21.1 12.6 23 12.1 24.4 12.9 C 25.799999999999997 13.700000000000001 28.099999999999998 18.5 28.099999999999998 18.5 C 28.099999999999998 18.5 22.799999999999997 18.9 21.4 18.1 C 20 17.3 19.5 15.4 20.3 14 z M 37.7 24 C 36.900000000000006 25.4 35 25.9 33.6 25.1 C 32.2 24.3 29.900000000000002 19.5 29.900000000000002 19.5 C 29.900000000000002 19.5 35.2 19.1 36.6 19.9 C 38 20.7 38.5 22.6 37.7 24 z M 20.3 24 C 19.5 22.6 20 20.7 21.400000000000002 19.9 C 22.8 19.099999999999998 28.1 19.5 28.1 19.5 C 28.1 19.5 25.8 24.3 24.400000000000002 25.1 C 23 25.9 21.2 25.4 20.3 24 z M 37.7 14 C 38.5 15.4 38 17.3 36.6 18.1 C 35.2 18.900000000000002 29.900000000000002 18.5 29.900000000000002 18.5 C 29.900000000000002 18.5 32.2 13.7 33.6 12.9 C 35 12.1 36.8 12.6 37.7 14 z" stroke-linecap="round" />
</g>
<g transform="matrix(1 0 0 1 5 -5)" >
<path style="stroke: none; stroke-width: 1; stroke-dasharray: none; stroke-linecap: butt; stroke-dashoffset: 0; stroke-linejoin: miter; stroke-miterlimit: 4; fill: rgb(255,152,0); fill-rule: nonzero; opacity: 1;" transform=" translate(-29, -19)" d="M 29 15 C 26.790861000676827 15 25 16.790861000676827 25 19 C 25 21.209138999323173 26.790861000676827 23 29 23 C 31.209138999323173 23 33 21.209138999323173 33 19 C 33 16.790861000676827 31.209138999323173 15 29 15 Z" stroke-linecap="round" />
</g>
<g transform="matrix(1 0 0 1 5 -5)" >
<path style="stroke: none; stroke-width: 1; stroke-dasharray: none; stroke-linecap: butt; stroke-dashoffset: 0; stroke-linejoin: miter; stroke-miterlimit: 4; fill: rgb(255,235,59); fill-rule: nonzero; opacity: 1;" transform=" translate(-29, -19)" d="M 29 16.5 C 27.619288125423015 16.5 26.5 17.619288125423015 26.5 19 C 26.5 20.380711874576985 27.619288125423015 21.5 29 21.5 C 30.380711874576985 21.5 31.5 20.380711874576985 31.5 19 C 31.5 17.619288125423015 30.380711874576985 16.5 29 16.5 Z" stroke-linecap="round" />
</g>
<g transform="matrix(1 0 0 1 2 16.05)" >
<path style="stroke: none; stroke-width: 1; stroke-dasharray: none; stroke-linecap: butt; stroke-dashoffset: 0; stroke-linejoin: miter; stroke-miterlimit: 4; fill: rgb(244,67,54); fill-rule: nonzero; opacity: 1;" transform=" translate(-26, -40.05)" d="M 28.2 39 L 23.8 39.9 L 23.5 37.9 L 28.5 37.1 z M 28 42 L 24 43 L 23.9 41 L 28.1 40 z" stroke-linecap="round" />
</g>
</g>
</g>
</svg>